<?xml version="1.0" standalone="no"?>
<!DOCTYPE svg PUBLIC "-//W3C//DTD SVG 20010904//EN"
 "http://www.w3.org/TR/2001/REC-SVG-20010904/DTD/svg10.dtd">
<svg version="1.0" xmlns="http://www.w3.org/2000/svg"
 width="663.000000pt" height="535.000000pt" viewBox="0 0 663.000000 535.000000"
 preserveAspectRatio="xMidYMid meet">

<g transform="translate(0.000000,535.000000) scale(0.100000,-0.100000)"
fill="#000000" stroke="none">
<path d="M5574 5139 c-16 -5 -48 -24 -69 -42 l-39 -33 70 -33 c127 -59 214
-170 215 -274 0 -48 -18 -150 -39 -222 -14 -47 -53 -110 -95 -154 -34 -36 -57
-83 -57 -119 0 -14 67 26 113 67 99 89 141 253 103 401 -14 54 -14 54 14 87
84 95 52 250 -62 307 -53 27 -99 31 -154 15z"/>
<path d="M5328 5053 c12 -2 30 -2 40 0 9 3 -1 5 -23 4 -22 0 -30 -2 -17 -4z"/>
<path d="M5070 4544 c0 -31 23 -28 28 4 2 15 -2 22 -12 22 -11 0 -16 -9 -16
-26z"/>
<path d="M5297 4543 c-4 -3 -7 -15 -7 -25 0 -26 24 -17 28 10 3 21 -8 29 -21
15z"/>
<path d="M1482 4479 c-29 -5 -101 -30 -160 -55 -59 -25 -131 -50 -161 -54 -52
-9 -55 -8 -94 25 -45 39 -59 42 -77 20 -19 -23 1 -59 49 -91 23 -14 38 -30 36
-35 -3 -4 -31 -11 -63 -15 -70 -8 -71 -9 -65 -35 6 -22 40 -40 85 -44 65 -5
68 -44 7 -113 -64 -74 -58 -156 17 -218 28 -22 54 -57 74 -100 41 -84 116
-161 212 -213 49 -27 100 -67 143 -110 55 -57 86 -80 143 -108 3 -1 -52 -339
-94 -583 -4 -26 -8 -31 -14 -19 -7 12 -180 681 -180 695 0 2 -7 4 -15 4 -10 0
-15 10 -15 30 0 39 -17 39 -95 1 -74 -35 -145 -106 -181 -180 -26 -51 -28 -68
-32 -193 l-4 -138 -111 -2 c-62 -1 -158 -2 -214 -3 -141 -1 -148 -8 -139 -130
4 -49 11 -108 16 -130 6 -22 17 -101 25 -175 9 -74 22 -173 30 -220 8 -47 19
-130 25 -185 6 -55 17 -136 25 -180 8 -44 19 -129 25 -190 9 -92 44 -310 56
-352 9 -32 50 -43 168 -44 65 0 124 -3 132 -6 8 -3 14 -16 14 -29 0 -30 15
-33 150 -37 l105 -2 5 -50 c5 -46 8 -51 41 -67 20 -9 48 -20 63 -24 l26 -6 0
76 0 76 53 0 c28 0 58 -4 65 -8 9 -7 12 -82 10 -343 l-3 -334 -50 0 -50 0 -3
58 -3 57 -84 0 -84 0 -3 -57 -3 -58 -140 -5 c-77 -3 -149 -10 -160 -15 -59
-26 -117 -94 -131 -152 -4 -15 -20 -40 -35 -55 -28 -26 -41 -82 -21 -90 5 -2
12 -15 16 -30 l6 -28 -95 0 c-78 0 -95 -3 -95 -15 0 -13 83 -15 688 -15 546
-1 695 -4 724 -14 31 -11 41 -11 55 0 15 11 390 13 2206 14 1937 0 2187 2
2187 15 0 13 -49 15 -384 15 -234 0 -387 4 -391 10 -3 5 0 60 7 122 6 62 11
124 10 138 -3 51 -14 110 -21 106 -11 -7 13 1930 27 2139 5 61 7 112 6 113 -2
2 -15 -16 -30 -40 -27 -43 -243 -265 -359 -369 -34 -30 -56 -51 -51 -46 17 12
22 8 58 -46 44 -65 52 -91 38 -116 -7 -15 -5 -108 10 -343 11 -178 22 -343 25
-368 3 -25 14 -187 25 -360 11 -173 24 -366 29 -428 10 -133 5 -187 -20 -224
-11 -14 -19 -31 -19 -37 0 -6 -4 -11 -10 -11 -5 0 -10 -6 -10 -14 0 -8 -3 -16
-7 -18 -5 -1 -17 -21 -28 -43 -15 -29 -31 -44 -60 -55 -60 -23 -65 -28 -65
-71 l0 -39 -41 0 c-32 0 -39 3 -32 13 9 10 37 224 35 267 -1 34 -16 105 -22
110 -4 3 -13 64 -19 135 -59 642 -59 642 -36 775 19 112 73 430 85 500 17 95
18 95 -68 40 -42 -28 -84 -50 -92 -50 -27 1 -58 24 -91 70 l-33 45 -12 -85
c-18 -122 -62 -415 -74 -485 -14 -86 -12 -204 5 -288 8 -40 23 -126 34 -192
11 -66 33 -194 49 -285 31 -185 33 -241 9 -268 -9 -10 -17 -24 -17 -30 0 -7
-4 -12 -10 -12 -5 0 -10 -9 -10 -20 0 -11 -4 -20 -10 -20 -5 0 -10 -7 -10 -16
0 -25 -65 -84 -92 -84 -13 0 -29 -5 -36 -12 -15 -15 -16 -70 0 -86 20 -20 -9
-23 -227 -20 l-210 3 0 965 0 965 65 5 65 5 3 42 c4 63 -10 107 -36 111 -19 3
-21 10 -24 78 l-3 74 -315 1 -315 0 -5 -66 -5 -66 35 -17 c33 -16 35 -20 40
-77 5 -55 6 -57 13 -26 4 18 7 54 7 80 0 25 7 58 14 74 14 25 13 27 -5 27 -14
0 -19 7 -19 25 0 26 1 26 73 23 64 -3 72 -5 72 -23 0 -14 -8 -21 -26 -23 -46
-5 -63 -35 -70 -125 -4 -45 -10 -90 -14 -99 -6 -14 1 -17 42 -20 l48 -3 8
-172 c8 -171 8 -173 -16 -227 -36 -78 -55 -87 -168 -84 l-94 3 -3 192 -2 192
-80 -2 -80 -2 0 -115 c0 -66 7 -141 15 -175 9 -37 14 -113 15 -200 l0 -140 65
3 64 4 3 56 3 57 243 3 242 2 0 -665 0 -665 -1040 0 c-781 0 -1040 3 -1040 12
0 10 -116 128 -126 128 -3 0 -18 13 -34 30 -16 16 -34 30 -40 30 -5 0 -10 5
-10 10 0 6 6 10 14 10 9 0 16 16 20 48 15 124 28 439 24 637 -3 213 -2 220 17
223 51 7 61 13 78 41 10 17 17 50 17 81 l0 51 31 -18 c81 -48 94 -144 86 -679
-3 -217 -2 -375 4 -381 5 -5 9 -48 10 -96 l1 -87 82 1 c44 1 162 6 261 13
l180 11 1 30 c3 47 -19 71 -75 85 -28 7 -51 17 -51 22 0 6 -7 7 -15 4 -9 -3
-23 -1 -33 4 -9 5 -33 13 -52 18 l-35 9 3 94 c1 52 6 207 11 344 11 326 1 526
-30 630 -20 68 -31 87 -83 143 -69 74 -233 186 -381 260 l-100 50 3 78 c2 44
5 85 7 91 3 9 47 13 157 15 l153 3 43 85 43 85 -27 5 c-16 3 111 4 282 2 l309
-3 0 40 c0 24 -3 35 -8 28 -7 -9 -10 -9 -14 1 -2 6 -11 12 -19 12 -19 0 -18 3
19 71 24 46 39 61 60 66 29 6 36 20 12 29 -12 5 -12 9 1 29 22 33 11 44 -36
38 -31 -4 -40 -2 -40 10 0 11 9 14 38 12 46 -4 90 11 97 35 3 10 17 35 31 56
14 21 29 47 34 58 7 20 5 21 -71 18 -51 -2 -79 0 -79 7 0 17 46 24 112 18 58
-5 60 -5 79 26 10 18 19 35 19 40 0 4 -38 7 -85 7 -50 0 -85 4 -85 10 0 6 38
10 94 10 93 0 95 0 116 29 12 18 16 32 10 36 -16 10 -12 23 10 30 21 7 53 58
43 69 -4 3 -24 6 -45 6 -24 0 -37 4 -33 10 3 6 30 10 59 10 46 0 54 3 64 24 8
17 21 26 44 29 18 2 -38 5 -125 5 -145 2 -158 3 -155 20 3 15 19 17 146 20
109 2 142 6 142 16 0 7 8 20 18 29 16 15 47 17 226 17 l207 0 -15 -22 c-28
-39 -21 -48 40 -48 34 0 53 -4 49 -10 -3 -5 -27 -10 -53 -10 -58 0 -92 -9 -92
-24 0 -6 -16 -36 -35 -66 -48 -75 -47 -80 25 -80 33 0 60 -4 60 -10 0 -6 -29
-10 -67 -10 -38 0 -73 -4 -79 -8 -16 -10 -34 -48 -27 -56 3 -3 39 -6 80 -6 58
0 73 -3 73 -15 0 -12 -17 -15 -95 -15 -82 0 -97 -3 -102 -17 -4 -10 -22 -42
-39 -72 -18 -30 -31 -58 -28 -63 3 -4 57 -8 120 -8 69 0 114 -4 114 -10 0 -6
-50 -10 -129 -10 -123 0 -131 -1 -145 -22 -22 -31 -20 -48 5 -48 32 0 17 -24
-19 -30 -38 -6 -82 -57 -58 -66 23 -9 20 -24 -4 -24 -14 0 -30 -16 -50 -47
-16 -27 -34 -54 -40 -60 -9 -10 34 -13 209 -13 l220 0 20 -26 c15 -19 18 -31
11 -49 -7 -19 -6 -23 5 -19 7 3 18 17 24 32 9 24 92 320 187 667 20 72 42 151
50 177 21 65 15 109 -16 125 -30 15 -983 19 -1023 4 -27 -10 -32 -24 -102
-281 -78 -285 -127 -458 -151 -533 -29 -93 -30 -114 -6 -120 9 -2 4 -3 -12 -1
-16 2 -64 4 -107 4 l-79 0 0 95 0 95 -230 0 c-264 0 -235 -13 -268 120 -52
206 -81 351 -85 426 -6 100 -42 178 -114 245 -69 65 -86 72 -106 49 -9 -11
-19 -31 -23 -45 -6 -24 -8 -25 -24 -10 -24 21 -41 84 -30 106 6 9 31 25 57 34
100 36 151 66 215 128 47 45 78 67 102 71 38 7 83 52 91 92 3 13 7 35 10 48 3
17 -3 34 -21 55 -21 26 -25 39 -21 74 2 23 10 56 17 72 9 21 11 49 6 88 -7 54
-10 60 -49 85 -23 14 -77 59 -119 99 -81 76 -138 110 -227 137 -59 17 -88 18
-169 5z m116 -234 c45 -8 87 -17 92 -20 19 -12 9 -25 -19 -25 -29 0 -41 -14
-41 -51 0 -10 -5 -19 -10 -19 -18 0 -24 31 -11 52 15 24 14 24 -22 33 -26 7
-28 6 -21 -19 4 -16 1 -32 -6 -41 -22 -27 -33 -17 -26 23 7 44 -1 57 -22 39
-12 -9 -16 -9 -19 1 -8 21 -31 13 -37 -13 -8 -31 -26 -33 -26 -3 0 30 28 58
59 58 14 0 63 -7 109 -15z m92 -84 c0 -20 -17 -37 -27 -28 -7 8 7 47 18 47 5
0 9 -9 9 -19z m-199 -4 c-1 -12 -15 -9 -19 4 -3 6 1 10 8 8 6 -3 11 -8 11 -12z
m47 -77 c377 -62 346 -55 360 -85 32 -69 -4 -144 -78 -166 -54 -16 -96 -5
-186 49 -44 27 -89 51 -102 54 -12 3 -59 -2 -104 -13 -134 -30 -172 -25 -230
29 -29 27 -44 77 -34 110 9 26 45 72 57 72 5 0 148 -23 317 -50z m121 -356
c28 -35 28 -74 1 -74 -11 0 -20 4 -20 8 0 5 -37 8 -82 8 -88 -1 -177 19 -186
43 -8 21 19 31 47 16 67 -33 191 -30 191 6 0 27 25 23 49 -7z m1416 -689 c0
-5 -28 -11 -62 -13 -58 -3 -83 8 -50 22 21 9 112 2 112 -9z m-89 -276 c10 -17
-16 -29 -68 -29 -46 0 -65 11 -53 30 8 14 112 13 121 -1z m485 -112 c-13 -13
-26 -3 -16 12 3 6 11 8 17 5 6 -4 6 -10 -1 -17z m177 11 c-3 -9 -30 -14 -76
-16 -60 -2 -72 0 -72 13 0 12 14 15 76 15 56 0 75 -3 72 -12z m-38 -98 c0 -6
-45 -10 -115 -10 -70 0 -115 4 -115 10 0 6 45 10 115 10 70 0 115 -4 115 -10z
m-1321 -34 c9 -11 8 -18 -4 -30 -15 -15 -15 -16 5 -16 28 0 38 -29 16 -46 -15
-10 -15 -14 -3 -21 8 -4 16 -20 19 -35 3 -15 2 -26 -2 -23 -15 9 -149 -17
-208 -40 -34 -14 -76 -25 -92 -25 l-30 0 0 109 0 109 68 1 c37 1 96 7 132 15
86 18 86 18 99 2z m88 -122 c-3 -3 -12 -4 -19 -1 -8 3 -5 6 6 6 11 1 17 -2 13
-5z m46 -1 c-7 -2 -19 -2 -25 0 -7 3 -2 5 12 5 14 0 19 -2 13 -5z m-48 -53 c3
-5 -3 -10 -14 -10 -12 0 -21 5 -21 10 0 6 6 10 14 10 8 0 18 -4 21 -10z m348
-7 c-7 -2 -19 -2 -25 0 -7 3 -2 5 12 5 14 0 19 -2 13 -5z m1477 -438 l0 -245
-120 0 c-66 0 -120 2 -120 4 0 2 12 26 26 54 25 48 25 54 24 241 l0 191 95 0
95 0 0 -245z m-2872 -1471 c2 -54 -1 -74 -13 -84 -19 -16 -19 -59 -1 -96 8
-15 13 -31 10 -36 -3 -4 -93 -8 -200 -8 l-195 0 7 23 c3 12 13 26 20 30 22 13
17 65 -9 91 -27 27 -22 53 16 95 46 50 91 61 232 58 l130 -2 3 -71z m237 -74
l0 -145 -66 -3 -66 -3 5 26 c2 15 11 29 18 32 21 8 17 67 -6 88 -16 15 -20 31
-20 87 l0 69 68 -3 67 -3 0 -145z m3595 -44 c0 -41 3 -81 6 -90 5 -14 -8 -16
-105 -16 -102 0 -139 10 -92 25 10 3 54 39 97 80 44 41 82 74 87 75 4 0 7 -33
7 -74z m496 -93 c-6 -15 -166 -19 -166 -4 0 5 37 43 83 85 l82 75 3 -71 c2
-39 1 -77 -2 -85z m-3883 41 c31 -16 47 -31 47 -46 0 -5 -24 -8 -54 -8 -52 0
-54 1 -58 30 -7 46 10 52 65 24z"/>
<path d="M1241 4041 c-36 -28 -19 -43 40 -35 41 6 55 3 77 -13 15 -11 33 -18
40 -16 22 8 13 31 -21 57 -41 31 -101 34 -136 7z"/>
<path d="M1670 3972 c-35 -28 -18 -44 40 -36 41 5 53 3 76 -15 32 -25 61 -13
43 20 -24 46 -118 64 -159 31z"/>
<path d="M5129 4340 c25 -21 57 -26 81 -10 21 13 12 17 -50 24 l-55 7 24 -21z"/>
<path d="M5532 3978 c-10 -18 -70 -122 -132 -230 -62 -109 -116 -198 -121
-198 -5 0 -6 94 -3 226 7 221 7 226 -12 216 -28 -15 -81 -73 -117 -127 -26
-40 -49 -57 -127 -98 -168 -89 -254 -119 -355 -126 l-89 -6 -14 -47 c-13 -39
-20 -47 -45 -52 l-30 -6 23 -25 c14 -15 21 -31 17 -44 -4 -17 1 -22 30 -27 20
-4 77 -4 127 -1 87 5 176 31 318 91 21 9 41 16 46 16 10 0 15 -44 37 -310 11
-130 12 -198 3 -322 -10 -139 -9 -158 5 -172 8 -9 30 -38 48 -66 18 -27 38
-50 44 -50 7 0 38 9 70 20 32 11 68 20 80 20 14 0 51 34 116 108 130 146 143
166 128 190 -10 16 -8 26 10 56 13 20 28 36 34 36 7 0 29 -11 50 -25 29 -20
37 -32 37 -55 0 -34 6 -37 32 -13 16 14 23 15 38 5 11 -7 22 -12 24 -12 3 0
16 35 30 78 71 228 23 598 -108 817 -59 99 -124 165 -165 165 -5 0 -18 -15
-29 -32z"/>
<path d="M3157 2573 c-15 -14 -6 -23 23 -23 20 0 30 5 30 15 0 15 -40 21 -53
8z"/>
<path d="M3328 2385 c-17 -18 8 -25 81 -25 117 0 122 -7 132 -155 5 -64 9
-118 11 -119 2 -1 39 0 84 2 75 4 80 5 79 25 -1 20 -9 23 -71 27 l-69 5 -5 85
c-5 87 -17 123 -48 139 -22 12 -185 25 -194 16z"/>
<path d="M5243 2337 c-15 -13 -37 -29 -48 -35 -14 -8 -15 -11 -5 -11 8 0 33
15 54 34 44 39 43 48 -1 12z"/>
<path d="M5108 2323 c7 -3 16 -2 19 1 4 3 -2 6 -13 5 -11 0 -14 -3 -6 -6z"/>
</g>
</svg>
